<svg width="48" height="68" viewBox="0 0 47 68" fill="none" xmlns="http://www.w3.org/2000/svg">
<path d="M16.2168 32.8312H29.8009L46.7849 0H33.2009L16.2168 32.8312Z" fill="#006CA2"/>
<path d="M24.7054 16.418L17.916 29.5505L19.616 32.8336H29.8001L31.5001 29.5505L24.7054 16.418Z" fill="#2F2F2F"/>
<path d="M30.8903 40.7565H17.3009V32.8302H30.885V40.7565H30.8903ZM30.8903 29.4355H17.3009C15.4256 29.4355 13.9062 30.9549 13.9062 32.8302V40.7565C13.9062 42.6318 15.4256 44.1512 17.3009 44.1512H30.885C32.7603 44.1512 34.2797 42.6318 34.2797 40.7565V32.8302C34.2808 32.3846 34.1939 31.9431 34.0241 31.531C33.8542 31.119 33.6047 30.7446 33.2898 30.4292C32.9749 30.1138 32.6009 29.8637 32.1891 29.6932C31.7773 29.5227 31.336 29.4351 30.8903 29.4355Z" fill="#CECED2"/>
<path d="M41.0795 50.9509C41.0795 60.3327 33.4773 67.9349 24.0954 67.9349C14.7188 67.9349 7.11133 60.3327 7.11133 50.9509C7.11133 41.569 14.7135 33.9668 24.0954 33.9668C33.4773 33.9668 41.0795 41.5743 41.0795 50.9509Z" fill="#CECED2"/>
<path d="M12.7106 46.8174C12.4875 46.8174 12.2643 46.7749 12.0518 46.6792C11.2337 46.3286 10.8406 45.3777 11.1593 44.5489C11.1646 44.5383 11.17 44.5224 11.17 44.5117C11.1753 44.4852 11.1753 44.4905 11.1912 44.4692C11.9341 42.7031 13.0859 41.1387 14.5516 39.9048C16.0174 38.6709 17.7552 37.8027 19.6221 37.3717C19.8081 37.3292 20.0046 37.4195 20.0896 37.5949C20.1746 37.7702 20.1268 37.9774 19.9728 38.0995C17.4918 40.0705 15.5103 42.7267 14.2459 45.7814C14.2459 45.7867 14.2406 45.792 14.2406 45.792C14.2406 45.7974 14.2406 45.7974 14.2353 45.8027C14.06 46.2117 13.7359 46.5252 13.3215 46.6899C13.1303 46.7802 12.9178 46.8174 12.7106 46.8174Z" fill="white"/>
<path d="M30.9373 32.8312H17.3479L0.369141 0H13.9532L30.9373 32.8312Z" fill="#006CA2"/>
<path d="M29.1306 55.1854H23.4303C24.3281 54.6382 25.8953 53.5491 27.6803 51.7641C29.3537 50.096 29.9116 47.052 27.9141 45.0491C26.7559 43.8963 25.4384 43.3066 23.9987 43.3066C20.8166 43.3066 18.1603 46.1223 18.0487 46.2391C17.9797 46.3135 17.9637 46.4304 18.0222 46.5207L19.4566 48.8635C19.4937 48.922 19.5575 48.9645 19.6266 48.9698C19.6956 48.9804 19.7647 48.9591 19.8178 48.906C19.8337 48.8901 21.5656 47.2857 23.085 47.2857C23.6959 47.2857 24.174 47.5407 24.5459 48.072C24.8487 48.5023 24.9391 48.9804 24.8222 49.5223C24.2431 52.1148 19.1272 55.0473 19.0741 55.0791C19.0389 55.1 19.0098 55.1295 18.9893 55.1649C18.9689 55.2002 18.9578 55.2402 18.9572 55.281V58.3463C18.9572 58.4791 19.0634 58.5801 19.1909 58.5801H29.1359C29.2634 58.5801 29.3697 58.4738 29.3697 58.3463V55.4138C29.3668 55.3523 29.3404 55.2943 29.2959 55.2518C29.2514 55.2092 29.1922 55.1855 29.1306 55.1854Z" fill="#77A2AD"/>
</svg>
