<svg width="48" height="68" viewBox="0 0 47 68" fill="none" xmlns="http://www.w3.org/2000/svg">
<path d="M15.9609 32.8419H29.5503L46.5397 0H32.9503L15.9609 32.8419Z" fill="#006CA2"/>
<path d="M24.4568 16.4219L17.6621 29.5597L19.3621 32.8428H29.5515L31.2515 29.5597L24.4568 16.4219Z" fill="#2F2F2F"/>
<path d="M30.6398 40.7735H17.0504V32.842H30.6398V40.7735ZM30.6398 29.4473H17.0504C16.1487 29.4473 15.2838 29.8055 14.6462 30.4431C14.0086 31.0807 13.6504 31.9455 13.6504 32.8473V40.7735C13.6504 41.6753 14.0086 42.5401 14.6462 43.1777C15.2838 43.8153 16.1487 44.1735 17.0504 44.1735H30.6398C32.5151 44.1735 34.0344 42.6541 34.0344 40.7735V32.842C34.0344 30.9666 32.5151 29.4473 30.6398 29.4473Z" fill="#FCC21B"/>
<path d="M40.8303 50.962C40.8303 60.3439 33.2228 67.9514 23.8409 67.9514C14.4591 67.9514 6.85156 60.3492 6.85156 50.962C6.85156 41.5748 14.4591 33.9727 23.8409 33.9727C33.2281 33.9727 40.8303 41.5802 40.8303 50.962Z" fill="#FCC21B"/>
<path d="M12.4547 46.8291C12.2316 46.8291 12.0085 46.7866 11.796 46.691C10.9778 46.3404 10.5847 45.3894 10.9035 44.566C10.9088 44.5554 10.9141 44.5394 10.9141 44.5288C10.9194 44.5022 10.9247 44.5075 10.9353 44.4863C12.4388 40.9057 15.5891 38.26 19.3716 37.3835C19.5575 37.341 19.7541 37.4313 19.8391 37.6066C19.9241 37.7819 19.8763 37.9944 19.7222 38.1166C17.2413 40.0875 15.2597 42.7438 13.9953 45.8038C13.9953 45.8091 13.99 45.8144 13.99 45.8144C13.99 45.8144 13.99 45.8197 13.9847 45.8197C13.8094 46.2288 13.4853 46.5475 13.071 46.7069C12.8744 46.7919 12.6619 46.8291 12.4547 46.8291Z" fill="white"/>
<path d="M30.6881 32.8419H17.0934L0.109375 0H13.6988L30.6881 32.8419Z" fill="#006CA2"/>
<path d="M20.547 47.4989L22.1248 47.0473V55.712H20.9082C20.7754 55.712 20.6745 55.8183 20.6745 55.9458V58.9101C20.6745 59.0376 20.7754 59.1439 20.9082 59.1439H27.2035C27.331 59.1439 27.4372 59.0376 27.4372 58.9101V55.9458C27.4372 55.8183 27.331 55.712 27.2035 55.712H25.9869V43.0204C25.9869 42.9514 25.955 42.8823 25.8966 42.8398C25.8694 42.8178 25.8377 42.8021 25.8037 42.7938C25.7697 42.7855 25.7343 42.7849 25.7 42.792L20.4301 43.9236C20.3238 43.9501 20.2441 44.0404 20.2441 44.152V47.2757C20.2441 47.3448 20.276 47.4192 20.3345 47.4617C20.4035 47.5042 20.4779 47.5148 20.547 47.4989Z" fill="#F79329"/>
</svg>
