<svg width="48" height="68" viewBox="0 0 48 68" fill="none" xmlns="http://www.w3.org/2000/svg">
<path d="M16.6367 32.8578H30.2314L47.2261 0H33.6314L16.6367 32.8578Z" fill="#006CA2"/>
<path d="M25.1306 16.4277L18.3359 29.5762L20.0359 32.8593H30.2306L31.9306 29.5762L25.1306 16.4277Z" fill="#2F2F2F"/>
<path d="M31.315 40.7905H17.7203V32.859H31.315V40.7905ZM31.315 29.459H17.7203C16.8186 29.459 15.9538 29.8172 15.3162 30.4548C14.6785 31.0924 14.3203 31.9572 14.3203 32.859V40.7905C14.3203 42.6712 15.8397 44.1905 17.7203 44.1905H31.315C33.1956 44.1905 34.715 42.6712 34.715 40.7905V32.859C34.715 30.9784 33.1956 29.459 31.315 29.459Z" fill="#F79329"/>
<path d="M41.5148 50.9849C41.5148 60.3721 33.9073 67.9796 24.5201 67.9796C15.1329 67.9796 7.52539 60.3721 7.52539 50.9849C7.52539 41.5977 15.1329 33.9902 24.5201 33.9902C33.9073 33.9902 41.5148 41.603 41.5148 50.9849Z" fill="#F79329"/>
<path d="M13.1246 46.8481C12.9015 46.8481 12.6784 46.8056 12.4659 46.7099C11.6478 46.3593 11.2546 45.4084 11.5734 44.5796C11.5787 44.5637 11.584 44.5531 11.5893 44.5424C11.5946 44.5159 11.5946 44.5212 11.6106 44.4999C12.3544 42.7329 13.507 41.1677 14.9736 39.9329C16.4402 38.6981 18.1789 37.829 20.0468 37.3971C20.2328 37.3546 20.4293 37.4449 20.5143 37.6202C20.5993 37.7956 20.5515 38.0081 20.3975 38.1302C17.9165 40.1012 15.935 42.7627 14.6653 45.8174C14.6653 45.8227 14.66 45.8281 14.66 45.8281C14.66 45.8334 14.66 45.8334 14.6546 45.8387C14.4793 46.2477 14.1553 46.5665 13.7409 46.7259C13.5443 46.8109 13.3318 46.8481 13.1246 46.8481Z" fill="white"/>
<path d="M31.3628 32.8578H17.7681L0.773438 0H14.3681L31.3628 32.8578Z" fill="#006CA2"/>
<path d="M24.3708 59.418H24.4558C25.4174 59.402 27.2396 59.1895 28.6314 57.9411C29.7896 56.8998 30.3261 55.4761 30.1083 54.0311C29.9011 52.687 29.0564 51.5448 27.7655 50.8383C29.0033 49.9086 29.747 48.7452 29.8745 47.5339C30.002 46.3598 29.5399 45.1911 28.5464 44.1498C27.5477 43.1033 26.1983 42.5508 24.6524 42.5508C22.2671 42.5508 20.073 43.8098 19.4089 44.7236C19.3505 44.798 19.3505 44.9042 19.4036 44.9892L20.8858 47.1302C20.923 47.1833 20.9761 47.2205 21.0399 47.2258C21.0983 47.2364 21.1674 47.2205 21.2152 47.178C21.2311 47.1673 22.8408 45.8445 24.2167 45.8445C24.8436 45.8445 25.3058 46.1208 25.6352 46.6839C25.9061 47.1567 25.9592 47.587 25.7945 48.0014C25.343 49.117 23.4305 49.6855 23.4146 49.6908C23.3189 49.7173 23.2499 49.8077 23.2499 49.9086V51.7945C23.2499 51.9008 23.3189 51.9911 23.4252 52.0123C23.4464 52.0177 25.2633 52.4692 25.6777 53.5105C25.8424 53.9195 25.7574 54.3817 25.4333 54.8864C25.088 55.4177 24.5674 55.6886 23.882 55.6886C22.5539 55.6886 20.9283 54.6792 20.2164 54.047C20.1927 54.026 20.1649 54.0099 20.1347 53.9999C20.1046 53.9898 20.0728 53.986 20.0411 53.9886C19.9721 53.9939 19.9189 54.0311 19.8817 54.0842L18.3996 56.2252C18.3411 56.3102 18.3464 56.4217 18.4155 56.5014C18.5058 56.6236 20.9283 59.418 24.3708 59.418Z" fill="#AE3D09"/>
</svg>
